# xmcd CD database file
#
# Track frame offsets:
#	150
#	7719
#	25355
#	45755
#	60043
#	76468
#	94933
#	112298
#	131086
#	151786
#	170104
#
# Disc length: 2524 seconds
#
# Revision: 0
# Processed by: cddbd v1.5.2PL0 Copyright (c) Steve Scherf et al.
# Submitted via: CDex 1.70beta2
#
DISCID=7c09da0b
DTITLE=黒夜葬 - ∞UroboroS∞
DYEAR=2008
DGENRE=東方アレンジ
TTITLE0=Eternal Recurrence
TTITLE1=Alucard
TTITLE2=冥土ブラッドワークス
TTITLE3=魔弾ノ射手
TTITLE4=Alternative Faith
TTITLE5=究極虚偽
TTITLE6=UroboroS-Infinity
TTITLE7=Heart Under Blade
TTITLE8=思兼想操
TTITLE9=Jormungandr
TTITLE10=ﾙﾋﾓ￟ - Dynamis-ﾃﾶ
EXTD=YEAR: 2008
EXTT0=
EXTT1=
EXTT2=
EXTT3=
EXTT4=
EXTT5=
EXTT6=
EXTT7=
EXTT8=
EXTT9=
EXTT10=
PLAYORDER=
